<svg width="24" height="24" viewBox="0 0 24 24" fill="none" xmlns="http://www.w3.org/2000/svg">
<path d="M15.7061 10.4311C15.7061 10.4311 15.1515 9.788 14.7705 9.788H14.4536V8.30713C14.4536 7.89313 14.1176 7.55713 13.7036 7.55713C13.2896 7.55713 12.9536 7.89313 12.9536 8.30713V9.788H11.0468V8.30713C11.0468 7.89313 10.7108 7.55713 10.2968 7.55713C9.88276 7.55713 9.54676 7.89313 9.54676 8.30713V9.788H9.22914C8.84814 9.788 8.29389 10.4311 8.29389 10.4311L4.19064 14.2621C4.03351 14.4091 3.90564 14.6773 3.90564 14.8614V15.1944V19.595C3.90564 20.3555 4.52289 20.9724 5.28339 20.9724H18.717C19.4775 20.9724 20.0944 20.3555 20.0944 19.595V15.1944C20.0944 15.1944 20.0944 15.0459 20.0944 14.8614C20.0944 14.6776 19.9665 14.4091 19.8094 14.2621L15.7061 10.4311ZM18.2194 19.0974H5.78064V15.3429L9.57339 11.8018L9.63976 11.7414L9.70614 11.6645C9.70651 11.6641 9.70689 11.6638 9.70726 11.663H14.2924L14.3524 11.7324L14.4263 11.8014L18.219 15.3425V19.0974H18.2194Z" fill="#209269"/>
<path d="M15.0477 3.02734H8.9524C5.84628 3.02734 3.32703 5.54659 3.32703 8.65347V9.40497C3.32703 9.61684 3.49878 9.78822 3.71103 9.78822H7.16515C7.68303 9.78822 8.10303 9.36897 8.10303 8.85072V6.91834C8.10303 6.40084 8.52265 5.98084 9.04053 5.98084H14.9592C15.477 5.98084 15.897 6.40084 15.897 6.91834V8.85072C15.897 9.36897 16.3167 9.78822 16.8345 9.78822H20.2894C20.5013 9.78822 20.6726 9.61684 20.6726 9.40497V8.65347C20.673 5.54659 18.1545 3.02734 15.0477 3.02734Z" fill="#209269"/>
<path d="M12.0001 12.6143C10.4198 12.6143 9.13806 13.896 9.13806 15.4763C9.13806 17.0569 10.4198 18.3383 12.0001 18.3383C13.5807 18.3383 14.8621 17.0569 14.8621 15.4763C14.8621 13.896 13.5807 12.6143 12.0001 12.6143ZM12.0001 16.1749C11.6142 16.1749 11.3014 15.8621 11.3014 15.4763C11.3014 15.0904 11.6142 14.7776 12.0001 14.7776C12.3859 14.7776 12.6987 15.0904 12.6987 15.4763C12.6987 15.8621 12.3859 16.1749 12.0001 16.1749Z" fill="#209269"/>
</svg>
