<svg width="164" height="64" viewBox="0 0 164 64" fill="none" xmlns="http://www.w3.org/2000/svg">
<path d="M0.791748 0.0837602C0.791748 0.167476 5.38688 11.6366 11.9036 27.8776C13.9088 32.8503 15.8304 37.6389 16.1645 38.5095C16.5154 39.3802 17.0334 40.7197 17.3342 41.4898L17.8856 42.8628L20.4923 42.8293L23.0823 42.7791L24.7366 38.677C25.6389 36.4166 28.6633 28.8822 31.4538 21.9337C34.2443 14.9853 37.3189 7.30011 38.3047 4.85559C39.2906 2.41107 40.1261 0.318166 40.1762 0.200963C40.243 0.0502737 39.6749 4.3869e-05 37.6698 4.3869e-05H35.0798L33.9937 2.71245C33.4088 4.21935 30.9024 10.4478 28.4461 16.5759C25.9898 22.7039 23.2327 29.5854 22.3137 31.896C21.3946 34.1898 20.5926 36.132 20.5425 36.199C20.4756 36.2659 18.9049 32.5322 17.0669 27.9111C15.2121 23.2899 11.937 15.1192 9.7982 9.76137L5.88817 4.3869e-05H3.34831C1.94471 4.3869e-05 0.791748 0.0335304 0.791748 0.0837602Z" fill="#209269"/>
<path d="M48.7479 21.4314V42.8628H51.0873H53.4266V21.4314V4.3869e-05H51.0873H48.7479V21.4314Z" fill="#209269"/>
<path d="M64.6227 1.84183V3.68359H78.6587C89.8374 3.68359 92.6948 3.73382 92.6948 3.90125C92.6948 4.01846 92.5277 4.28635 92.3104 4.52075C92.1099 4.75516 91.0071 6.11136 89.8541 7.53454C88.1163 9.71116 86.4621 11.7538 85.0418 13.4784C84.8914 13.6626 84.3065 14.3825 83.7551 15.069C83.2037 15.7555 82.7191 16.3582 82.669 16.4085C82.6189 16.4587 81.8001 17.4466 80.8644 18.6186L79.1433 20.7617H81.5662C82.8862 20.7617 84.0058 20.6947 84.0392 20.611C84.0893 20.4603 87.5315 16.1573 89.5199 13.7295C90.0212 13.1268 90.7063 12.2896 91.0238 11.8878C91.3413 11.486 91.8091 10.9167 92.0431 10.632C92.277 10.3642 93.6138 8.70657 95.0174 6.98201L97.5405 3.83428V1.92555V7.24318e-05H81.0816H64.6227V1.84183Z" fill="#209269"/>
<path d="M109.069 21.4314V42.8628H111.492H113.915V21.4314V4.3869e-05H111.492H109.069V21.4314Z" fill="#209269"/>
<path d="M140.901 0.167476C140.851 0.267936 139.865 2.66222 138.745 5.49183C137.609 8.32144 134.668 15.6382 132.212 21.7663C127.7 33.0178 124.76 40.368 124.125 41.9754L123.774 42.8628H126.347H128.904L130.307 39.3802C131.076 37.4715 132.413 34.1061 133.298 31.896L134.919 27.8776L143.508 27.8273L152.096 27.7939L154.335 33.4363C155.572 36.5506 156.641 39.1625 156.692 39.263C156.758 39.3467 157.093 40.2006 157.443 41.1382L158.078 42.8628H160.652C162.055 42.8628 163.208 42.8293 163.208 42.7958C163.208 42.6619 163.024 42.1931 151.06 12.3901C149.072 7.46754 147.15 2.66222 146.783 1.70786L146.114 4.3869e-05H143.558C142.021 4.3869e-05 140.968 0.0670169 140.901 0.167476ZM143.875 7.31685C144.326 8.35493 150.375 23.5076 150.459 23.809C150.542 24.0936 150.141 24.1103 143.508 24.1103C139.648 24.1103 136.473 24.0936 136.473 24.0601C136.473 24.0266 137.375 21.7495 138.478 18.9869C139.581 16.241 141.152 12.3398 141.954 10.3306C142.739 8.33819 143.441 6.69735 143.508 6.69735C143.558 6.69735 143.725 6.98198 143.875 7.31685Z" fill="#209269"/>
<path d="M76.9541 23.9764C76.6533 24.3782 76.2857 24.847 76.1186 25.0312C75.1662 26.1865 73.5621 28.1622 71.2227 31.0588C69.7523 32.8838 68.1148 34.9097 67.58 35.5627C66.1597 37.2873 66.1096 37.3543 65.4245 38.2082L64.7896 38.9784V40.9206V42.8628H81.4156H98.0416V40.9373V39.0118H83.7549H69.4682L70.8384 37.2873C71.6071 36.3497 72.2587 35.546 72.3089 35.4958C72.359 35.4455 72.8436 34.8428 73.395 34.1563C74.6649 32.5824 74.7652 32.4652 75.8513 31.1425C76.3526 30.5398 77.8397 28.698 79.1598 27.0404C80.4965 25.3828 81.6161 23.9931 81.6662 23.9429C82.3513 23.2899 82.3179 23.2732 79.8616 23.2732H77.5222L76.9541 23.9764Z" fill="#209269"/>
<path d="M0.91 59.8628V49.3328H1.911V54.1688H2.652L4.81 49.3328H5.811L3.523 54.4028L6.162 59.8628H5.161L2.665 54.7018H1.911V59.8628H0.91ZM7.80488 59.8758V59.1218C8.05621 59.1131 8.26854 59.0871 8.44188 59.0438C8.61521 58.9918 8.75821 58.8835 8.87088 58.7188C8.99221 58.5541 9.09188 58.2855 9.16988 57.9128C9.25654 57.5401 9.33454 57.0288 9.40388 56.3788C9.48188 55.7288 9.55988 54.8968 9.63788 53.8828L9.94988 49.3328H14.0449V59.8628H13.0439V50.0868H10.8339L10.5869 53.8828C10.5089 54.8795 10.4309 55.7288 10.3529 56.4308C10.2835 57.1241 10.1925 57.7005 10.0799 58.1598C9.96721 58.6105 9.81554 58.9658 9.62488 59.2258C9.44288 59.4771 9.20454 59.6505 8.90988 59.7458C8.61521 59.8411 8.24688 59.8845 7.80488 59.8758ZM17.1702 59.8628V49.3328H18.0542V57.6788L21.4602 49.3328H22.2272V59.8628H21.3432V51.4778L17.9502 59.8628H17.1702ZM25.351 59.8628V49.3328H26.352V53.9998H29.667V49.3328H30.655V59.8628H29.667V54.7408H26.352V59.8628H25.351ZM33.7858 59.8628V49.3328H34.6698V57.6788L38.0758 49.3328H38.8428V59.8628H37.9588V51.4778L34.5658 59.8628H33.7858ZM41.9666 59.8628V49.3328H42.9676V54.1688H43.7086L45.8666 49.3328H46.8676L44.5796 54.4028L47.2186 59.8628H46.2176L43.7216 54.7018H42.9676V59.8628H41.9666ZM49.0045 59.8628L51.2275 49.3328H52.2675L54.5035 59.8628H53.5285L53.0085 57.0418H50.4995L49.9665 59.8628H49.0045ZM50.6425 56.3268H52.8785L51.7605 50.6458L50.6425 56.3268ZM63.5212 59.9928C62.8192 59.9928 62.2688 59.8585 61.8702 59.5898C61.4802 59.3125 61.2028 58.9311 61.0382 58.4458C60.8821 57.9518 60.8041 57.3885 60.8041 56.7558V52.3878C60.8041 51.7465 60.8865 51.1918 61.0512 50.7238C61.2245 50.2471 61.5062 49.8788 61.8962 49.6188C62.2948 49.3588 62.8365 49.2288 63.5212 49.2288C64.1972 49.2288 64.7302 49.3588 65.1202 49.6188C65.5188 49.8788 65.8005 50.2471 65.9652 50.7238C66.1298 51.1918 66.2122 51.7465 66.2122 52.3878V56.7688C66.2122 57.4015 66.1298 57.9605 65.9652 58.4458C65.8092 58.9225 65.5362 59.2995 65.1462 59.5768C64.7562 59.8541 64.2145 59.9928 63.5212 59.9928ZM63.5212 59.1998C63.9805 59.1998 64.3315 59.1088 64.5742 58.9268C64.8168 58.7361 64.9815 58.4761 65.0682 58.1468C65.1635 57.8088 65.2112 57.4188 65.2112 56.9768V52.2058C65.2112 51.7638 65.1635 51.3781 65.0682 51.0488C64.9815 50.7195 64.8168 50.4681 64.5742 50.2948C64.3315 50.1128 63.9805 50.0218 63.5212 50.0218C63.0532 50.0218 62.6935 50.1128 62.4422 50.2948C62.1995 50.4681 62.0305 50.7195 61.9351 51.0488C61.8485 51.3781 61.8052 51.7638 61.8052 52.2058V56.9768C61.8052 57.4188 61.8485 57.8088 61.9351 58.1468C62.0305 58.4761 62.1995 58.7361 62.4422 58.9268C62.6935 59.1088 63.0532 59.1998 63.5212 59.1998ZM71.7422 60.4868V58.6408C71.6729 58.6495 71.5776 58.6581 71.4562 58.6668C71.3349 58.6755 71.2439 58.6798 71.1832 58.6798C70.6892 58.6798 70.2732 58.5888 69.9352 58.4068C69.6059 58.2248 69.3546 57.9388 69.1812 57.5488C69.0166 57.1501 68.9342 56.6258 68.9342 55.9758V53.0768C68.9342 52.4268 69.0209 51.8981 69.1942 51.4908C69.3676 51.0835 69.6189 50.7845 69.9482 50.5938C70.2862 50.3945 70.6979 50.2948 71.1832 50.2948C71.2612 50.2948 71.3566 50.2991 71.4692 50.3078C71.5819 50.3078 71.6729 50.3121 71.7422 50.3208V48.3838H72.7432V50.3078C72.8212 50.2991 72.9252 50.2948 73.0552 50.2948C73.1939 50.2861 73.2979 50.2818 73.3672 50.2818C73.8439 50.2818 74.2469 50.3815 74.5762 50.5808C74.9056 50.7801 75.1526 51.0878 75.3172 51.5038C75.4906 51.9111 75.5772 52.4355 75.5772 53.0768V55.9758C75.5772 56.6258 75.4949 57.1501 75.3302 57.5488C75.1656 57.9388 74.9229 58.2248 74.6022 58.4068C74.2902 58.5888 73.9089 58.6798 73.4582 58.6798C73.3369 58.6798 73.2156 58.6755 73.0942 58.6668C72.9816 58.6581 72.8646 58.6495 72.7432 58.6408V60.4868H71.7422ZM71.2742 58.0428C71.3349 58.0428 71.4086 58.0428 71.4952 58.0428C71.5906 58.0341 71.6729 58.0255 71.7422 58.0168V50.9578C71.6642 50.9405 71.5776 50.9318 71.4822 50.9318C71.3956 50.9318 71.3262 50.9318 71.2742 50.9318C70.9189 50.9318 70.6372 51.0055 70.4292 51.1528C70.2299 51.3001 70.0826 51.5341 69.9872 51.8548C69.9006 52.1755 69.8572 52.5828 69.8572 53.0768V55.9758C69.8572 56.4698 69.8962 56.8685 69.9742 57.1718C70.0609 57.4751 70.2039 57.6961 70.4032 57.8348C70.6112 57.9735 70.9016 58.0428 71.2742 58.0428ZM73.2632 58.0428C73.6186 58.0428 73.8959 57.9735 74.0952 57.8348C74.3032 57.6961 74.4462 57.4751 74.5242 57.1718C74.6109 56.8685 74.6542 56.4698 74.6542 55.9758V53.0768C74.6542 52.5828 74.6109 52.1755 74.5242 51.8548C74.4462 51.5341 74.3032 51.3001 74.0952 51.1528C73.8872 51.0055 73.5969 50.9318 73.2242 50.9318C73.1636 50.9318 73.0856 50.9361 72.9902 50.9448C72.8949 50.9448 72.8126 50.9491 72.7432 50.9578V58.0168C72.8212 58.0255 72.9079 58.0341 73.0032 58.0428C73.1072 58.0428 73.1939 58.0428 73.2632 58.0428ZM79.8041 59.8628V50.0998H77.8151V49.3328H82.7291V50.0998H80.7921V59.8628H79.8041ZM84.6149 59.8628L86.8379 49.3328H87.8779L90.1139 59.8628H89.1389L88.6189 57.0418H86.1099L85.5769 59.8628H84.6149ZM86.2529 56.3268H88.4889L87.3709 50.6458L86.2529 56.3268ZM91.9672 59.8758V59.1218C92.2185 59.1131 92.4308 59.0871 92.6042 59.0438C92.7775 58.9918 92.9205 58.8835 93.0332 58.7188C93.1545 58.5541 93.2542 58.2855 93.3322 57.9128C93.4188 57.5401 93.4968 57.0288 93.5662 56.3788C93.6442 55.7288 93.7222 54.8968 93.8002 53.8828L94.1122 49.3328H98.2072V59.8628H97.2062V50.0868H94.9962L94.7492 53.8828C94.6712 54.8795 94.5932 55.7288 94.5152 56.4308C94.4458 57.1241 94.3548 57.7005 94.2422 58.1598C94.1295 58.6105 93.9778 58.9658 93.7872 59.2258C93.6052 59.4771 93.3668 59.6505 93.0722 59.7458C92.7775 59.8411 92.4092 59.8845 91.9672 59.8758ZM101.345 59.8628V49.3328H102.333V53.7528H103.23C103.915 53.7528 104.478 53.8611 104.92 54.0778C105.371 54.2858 105.705 54.6151 105.921 55.0658C106.138 55.5165 106.246 56.1101 106.246 56.8468C106.246 57.3235 106.19 57.7481 106.077 58.1208C105.973 58.4935 105.8 58.8098 105.557 59.0698C105.315 59.3298 105.003 59.5291 104.621 59.6678C104.249 59.7978 103.798 59.8628 103.269 59.8628H101.345ZM102.333 59.1088H103.282C103.768 59.1088 104.153 59.0351 104.439 58.8878C104.734 58.7318 104.946 58.4848 105.076 58.1468C105.215 57.8088 105.284 57.3711 105.284 56.8338C105.284 56.0711 105.137 55.4948 104.842 55.1048C104.548 54.7061 104.023 54.5068 103.269 54.5068H102.333V59.1088ZM108.699 59.8628L108.959 49.3328H109.947L112.027 58.4718L114.146 49.3328H115.134L115.394 59.8628H114.575L114.367 51.4778L112.352 59.8628H111.715L109.726 51.4908L109.518 59.8628H108.699ZM120.94 59.9928C120.238 59.9928 119.687 59.8585 119.289 59.5898C118.899 59.3125 118.621 58.9311 118.457 58.4458C118.301 57.9518 118.223 57.3885 118.223 56.7558V52.3878C118.223 51.7465 118.305 51.1918 118.47 50.7238C118.643 50.2471 118.925 49.8788 119.315 49.6188C119.713 49.3588 120.255 49.2288 120.94 49.2288C121.616 49.2288 122.149 49.3588 122.539 49.6188C122.937 49.8788 123.219 50.2471 123.384 50.7238C123.548 51.1918 123.631 51.7465 123.631 52.3878V56.7688C123.631 57.4015 123.548 57.9605 123.384 58.4458C123.228 58.9225 122.955 59.2995 122.565 59.5768C122.175 59.8541 121.633 59.9928 120.94 59.9928ZM120.94 59.1998C121.399 59.1998 121.75 59.1088 121.993 58.9268C122.235 58.7361 122.4 58.4761 122.487 58.1468C122.582 57.8088 122.63 57.4188 122.63 56.9768V52.2058C122.63 51.7638 122.582 51.3781 122.487 51.0488C122.4 50.7195 122.235 50.4681 121.993 50.2948C121.75 50.1128 121.399 50.0218 120.94 50.0218C120.472 50.0218 120.112 50.1128 119.861 50.2948C119.618 50.4681 119.449 50.7195 119.354 51.0488C119.267 51.3781 119.224 51.7638 119.224 52.2058V56.9768C119.224 57.4188 119.267 57.8088 119.354 58.1468C119.449 58.4761 119.618 58.7361 119.861 58.9268C120.112 59.1088 120.472 59.1998 120.94 59.1998ZM125.859 59.8758V59.1218C126.11 59.1131 126.322 59.0871 126.496 59.0438C126.669 58.9918 126.812 58.8835 126.925 58.7188C127.046 58.5541 127.146 58.2855 127.224 57.9128C127.31 57.5401 127.388 57.0288 127.458 56.3788C127.536 55.7288 127.614 54.8968 127.692 53.8828L128.004 49.3328H132.099V59.8628H131.098V50.0868H128.888L128.641 53.8828C128.563 54.8795 128.485 55.7288 128.407 56.4308C128.337 57.1241 128.246 57.7005 128.134 58.1598C128.021 58.6105 127.869 58.9658 127.679 59.2258C127.497 59.4771 127.258 59.6505 126.964 59.7458C126.669 59.8411 126.301 59.8845 125.859 59.8758ZM137.733 59.9928C137.031 59.9928 136.481 59.8585 136.082 59.5898C135.692 59.3125 135.415 58.9311 135.25 58.4458C135.094 57.9518 135.016 57.3885 135.016 56.7558V52.3878C135.016 51.7465 135.098 51.1918 135.263 50.7238C135.436 50.2471 135.718 49.8788 136.108 49.6188C136.507 49.3588 137.048 49.2288 137.733 49.2288C138.409 49.2288 138.942 49.3588 139.332 49.6188C139.731 49.8788 140.012 50.2471 140.177 50.7238C140.342 51.1918 140.424 51.7465 140.424 52.3878V56.7688C140.424 57.4015 140.342 57.9605 140.177 58.4458C140.021 58.9225 139.748 59.2995 139.358 59.5768C138.968 59.8541 138.426 59.9928 137.733 59.9928ZM137.733 59.1998C138.192 59.1998 138.543 59.1088 138.786 58.9268C139.029 58.7361 139.193 58.4761 139.28 58.1468C139.375 57.8088 139.423 57.4188 139.423 56.9768V52.2058C139.423 51.7638 139.375 51.3781 139.28 51.0488C139.193 50.7195 139.029 50.4681 138.786 50.2948C138.543 50.1128 138.192 50.0218 137.733 50.0218C137.265 50.0218 136.905 50.1128 136.654 50.2948C136.411 50.4681 136.242 50.7195 136.147 51.0488C136.06 51.3781 136.017 51.7638 136.017 52.2058V56.9768C136.017 57.4188 136.06 57.8088 136.147 58.1468C136.242 58.4761 136.411 58.7361 136.654 58.9268C136.905 59.1088 137.265 59.1998 137.733 59.1998ZM143.367 59.8628V49.3328H147.098V50.0998H144.355V59.8628H143.367ZM149.529 59.8628V49.3328H150.413V57.6788L153.819 49.3328H154.586V59.8628H153.702V51.4778L150.309 59.8628H149.529ZM157.71 59.8628V49.3328H158.594V57.6788L162 49.3328H162.767V59.8628H161.883V51.4778L158.49 59.8628H157.71Z" fill="#209269"/>
</svg>
